<svg width="217" height="72" viewBox="0 0 217 72" fill="none" xmlns="http://www.w3.org/2000/svg">
<path d="M207.333 53.9998V40.5898H216.351V43.0198H210.123V46.0618H215.991V48.4918H210.123V51.5698H216.351V53.9998H207.333Z" fill="white"/>
<path d="M199.8 54.216C198.84 54.216 197.946 54.042 197.118 53.694C196.302 53.346 195.588 52.86 194.976 52.236C194.364 51.612 193.884 50.88 193.536 50.04C193.2 49.2 193.032 48.282 193.032 47.286C193.032 46.29 193.2 45.372 193.536 44.532C193.872 43.68 194.346 42.948 194.958 42.336C195.57 41.712 196.284 41.232 197.1 40.896C197.928 40.548 198.828 40.374 199.8 40.374C200.772 40.374 201.642 40.536 202.41 40.86C203.19 41.184 203.85 41.616 204.39 42.156C204.93 42.696 205.314 43.296 205.542 43.956L203.076 45.144C202.848 44.496 202.446 43.962 201.87 43.542C201.306 43.11 200.616 42.894 199.8 42.894C199.008 42.894 198.312 43.08 197.712 43.452C197.112 43.824 196.644 44.34 196.308 45C195.984 45.648 195.822 46.41 195.822 47.286C195.822 48.162 195.984 48.93 196.308 49.59C196.644 50.25 197.112 50.766 197.712 51.138C198.312 51.51 199.008 51.696 199.8 51.696C200.616 51.696 201.306 51.486 201.87 51.066C202.446 50.634 202.848 50.094 203.076 49.446L205.542 50.634C205.314 51.294 204.93 51.894 204.39 52.434C203.85 52.974 203.19 53.406 202.41 53.73C201.642 54.054 200.772 54.216 199.8 54.216Z" fill="white"/>
<path d="M180.069 53.9998V40.5898H182.211L189.411 50.0758L188.259 50.3458V40.5898H191.049V53.9998H188.889L181.815 44.4418L182.859 44.1718V53.9998H180.069Z" fill="white"/>
<path d="M165.895 53.9998L170.431 40.5898H174.139L178.675 53.9998H175.633L174.733 51.2638H169.819L168.919 53.9998H165.895ZM170.593 48.8338H173.959L171.907 42.4978H172.663L170.593 48.8338Z" fill="white"/>
<path d="M153.526 53.9998V40.5898H155.668L162.868 50.0758L161.716 50.3458V40.5898H164.506V53.9998H162.346L155.272 44.4418L156.316 44.1718V53.9998H153.526Z" fill="white"/>
<path d="M141.52 53.9998V40.5898H146.65C147.574 40.5898 148.39 40.7518 149.098 41.0758C149.818 41.3998 150.382 41.8798 150.79 42.5158C151.198 43.1518 151.402 43.9378 151.402 44.8738C151.402 45.7858 151.192 46.5658 150.772 47.2138C150.352 47.8498 149.788 48.3298 149.08 48.6538L152.14 53.9998H149.008L145.696 48.0778L147.496 49.1398H144.31V53.9998H141.52ZM144.31 46.7098H146.668C147.064 46.7098 147.406 46.6318 147.694 46.4758C147.982 46.3198 148.204 46.1038 148.36 45.8278C148.528 45.5518 148.612 45.2338 148.612 44.8738C148.612 44.5018 148.528 44.1778 148.36 43.9018C148.204 43.6258 147.982 43.4098 147.694 43.2538C147.406 43.0978 147.064 43.0198 146.668 43.0198H144.31V46.7098Z" fill="white"/>
<path d="M130.92 53.9998V40.5898H139.938V43.0198H133.71V46.0618H139.578V48.4918H133.71V51.5698H139.938V53.9998H130.92Z" fill="white"/>
<path d="M121.706 53.9998L117.116 40.5898H120.176L123.632 51.3538H123.02L126.476 40.5898H129.536L124.946 53.9998H121.706Z" fill="white"/>
<path d="M109.369 54.216C108.361 54.216 107.425 54.042 106.561 53.694C105.697 53.346 104.941 52.86 104.293 52.236C103.657 51.6 103.159 50.862 102.799 50.022C102.439 49.182 102.259 48.27 102.259 47.286C102.259 46.302 102.433 45.39 102.781 44.55C103.141 43.71 103.639 42.978 104.275 42.354C104.923 41.73 105.679 41.244 106.543 40.896C107.407 40.548 108.349 40.374 109.369 40.374C110.389 40.374 111.331 40.548 112.195 40.896C113.059 41.244 113.809 41.73 114.445 42.354C115.093 42.978 115.591 43.71 115.939 44.55C116.299 45.39 116.479 46.302 116.479 47.286C116.479 48.27 116.299 49.182 115.939 50.022C115.579 50.862 115.075 51.6 114.427 52.236C113.791 52.86 113.041 53.346 112.177 53.694C111.313 54.042 110.377 54.216 109.369 54.216ZM109.369 51.696C109.981 51.696 110.545 51.588 111.061 51.372C111.589 51.156 112.051 50.856 112.447 50.472C112.843 50.076 113.149 49.608 113.365 49.068C113.581 48.528 113.689 47.934 113.689 47.286C113.689 46.638 113.581 46.05 113.365 45.522C113.149 44.982 112.843 44.514 112.447 44.118C112.051 43.722 111.589 43.422 111.061 43.218C110.545 43.002 109.981 42.894 109.369 42.894C108.757 42.894 108.187 43.002 107.659 43.218C107.143 43.422 106.687 43.722 106.291 44.118C105.895 44.514 105.589 44.982 105.373 45.522C105.157 46.05 105.049 46.638 105.049 47.286C105.049 47.934 105.157 48.528 105.373 49.068C105.589 49.608 105.895 50.076 106.291 50.472C106.687 50.856 107.143 51.156 107.659 51.372C108.187 51.588 108.757 51.696 109.369 51.696Z" fill="white"/>
<path d="M94.632 54.216C93.672 54.216 92.778 54.042 91.95 53.694C91.122 53.346 90.396 52.86 89.772 52.236C89.148 51.612 88.662 50.88 88.314 50.04C87.966 49.2 87.792 48.282 87.792 47.286C87.792 46.29 87.96 45.372 88.296 44.532C88.632 43.68 89.106 42.948 89.718 42.336C90.33 41.712 91.044 41.232 91.86 40.896C92.688 40.548 93.588 40.374 94.56 40.374C95.532 40.374 96.402 40.536 97.17 40.86C97.95 41.184 98.61 41.616 99.15 42.156C99.69 42.696 100.074 43.296 100.302 43.956L97.836 45.144C97.608 44.496 97.206 43.962 96.63 43.542C96.066 43.11 95.376 42.894 94.56 42.894C93.768 42.894 93.072 43.08 92.472 43.452C91.872 43.824 91.404 44.34 91.068 45C90.744 45.648 90.582 46.41 90.582 47.286C90.582 48.162 90.756 48.93 91.104 49.59C91.452 50.25 91.926 50.766 92.526 51.138C93.138 51.51 93.84 51.696 94.632 51.696C95.244 51.696 95.814 51.582 96.342 51.354C96.882 51.114 97.314 50.772 97.638 50.328C97.974 49.884 98.142 49.35 98.142 48.726V47.61L99.42 48.69H94.56V46.35H100.932V47.772C100.932 48.864 100.752 49.818 100.392 50.634C100.032 51.438 99.546 52.11 98.934 52.65C98.334 53.178 97.656 53.574 96.9 53.838C96.156 54.09 95.4 54.216 94.632 54.216Z" fill="white"/>
<path d="M168.573 29.9998V16.5898H177.591V19.0198H171.363V22.0618H177.231V24.4918H171.363V27.5698H177.591V29.9998H168.573Z" fill="white"/>
<path d="M152.155 29.9998V16.5898H154.855L159.877 23.2498H158.617L163.495 16.5898H166.195V29.9998H163.405V19.6678L164.521 19.9198L159.355 26.5798H158.995L154.009 19.9198L154.945 19.6678V29.9998H152.155Z" fill="white"/>
<path d="M146.987 29.9998V16.5898H149.777V29.9998H146.987Z" fill="white"/>
<path d="M139.467 29.9998V19.0198H136.065V16.5898H145.605V19.0198H142.257V29.9998H139.467Z" fill="white"/>
<path d="M123.977 29.9998V16.5898H126.767V27.5698H132.437V29.9998H123.977Z" fill="white"/>
<path d="M109.803 29.9998L114.339 16.5898H118.047L122.583 29.9998H119.541L118.641 27.2638H113.727L112.827 29.9998H109.803ZM114.501 24.8338H117.867L115.815 18.4978H116.571L114.501 24.8338Z" fill="white"/>
<path d="M100.194 29.9998V16.5898H109.212V19.0198H102.984V22.0618H108.852V24.4918H102.984V27.5698H109.212V29.9998H100.194Z" fill="white"/>
<path d="M88.188 29.9998V16.5898H93.318C94.242 16.5898 95.058 16.7518 95.766 17.0758C96.486 17.3998 97.05 17.8798 97.458 18.5158C97.866 19.1518 98.07 19.9378 98.07 20.8738C98.07 21.7858 97.86 22.5658 97.44 23.2138C97.02 23.8498 96.456 24.3298 95.748 24.6538L98.808 29.9998H95.676L92.364 24.0778L94.164 25.1398H90.978V29.9998H88.188ZM90.978 22.7098H93.336C93.732 22.7098 94.074 22.6318 94.362 22.4758C94.65 22.3198 94.872 22.1038 95.028 21.8278C95.196 21.5518 95.28 21.2338 95.28 20.8738C95.28 20.5018 95.196 20.1778 95.028 19.9018C94.872 19.6258 94.65 19.4098 94.362 19.2538C94.074 19.0978 93.732 19.0198 93.336 19.0198H90.978V22.7098Z" fill="white"/>
<path d="M38.9506 38.3813C38.9506 38.3813 39.9547 52.7003 24.0249 55.5244C24.0249 55.5244 20.7616 56.5285 14.5801 55.9532C14.5801 55.9532 13.5028 63.0761 20.1654 67.8979C20.3641 65.6072 21.5774 55.9323 32.6017 60.0951C33.8673 58.955 43.0088 51.2883 38.9506 38.3813Z" fill="#F27D00"/>
<path d="M27.7688 71.1507C30.2643 71.1507 32.2873 69.1277 32.2873 66.6322C32.2873 64.1368 30.2643 62.1138 27.7688 62.1138C25.2734 62.1138 23.2504 64.1368 23.2504 66.6322C23.2504 69.1277 25.2734 71.1507 27.7688 71.1507Z" fill="#F27D00"/>
<path d="M37.0261 38.3813C37.0261 38.3813 35.886 46.7907 28.4912 52.5643C30.9806 51.623 38.9506 46.6443 37.0261 38.3813Z" fill="#F27D00"/>
<path d="M34.9345 39.0611C34.9345 39.0611 22.948 46.9579 12.6768 34.4589C12.6768 34.4589 10.1979 32.116 7.67722 26.4365C7.67722 26.4365 0.941349 28.9886 0 37.1574C2.09189 36.2161 11.1288 32.5239 12.8965 44.1757C14.5072 44.7196 25.6674 48.9348 34.9345 39.0611Z" fill="#F27D00"/>
<path d="M4.82133 47.6795C7.31681 47.6795 9.3398 45.6565 9.3398 43.161C9.3398 40.6656 7.31681 38.6426 4.82133 38.6426C2.32585 38.6426 0.302856 40.6656 0.302856 43.161C0.302856 45.6565 2.32585 47.6795 4.82133 47.6795Z" fill="#F27D00"/>
<path d="M33.9935 37.3871C33.9935 37.3871 26.1071 40.5145 17.4467 36.8955C19.4758 38.6004 27.7178 43.1084 33.9935 37.3871Z" fill="#F27D00"/>
<path d="M32.3617 35.8293C32.3617 35.8293 19.6953 29.0725 25.7723 14.0737C25.7723 14.0737 26.6509 10.779 30.4372 5.84211C30.4372 5.84211 24.9773 1.14583 17.3524 4.2209C19.1828 5.612 26.7345 11.7831 17.3524 18.9059C17.6348 20.6004 19.2665 32.4195 32.3617 35.8293Z" fill="#F27D00"/>
<path d="M14.3713 15.8626C16.8667 15.8626 18.8897 13.8396 18.8897 11.3442C18.8897 8.84867 16.8667 6.82568 14.3713 6.82568C11.8758 6.82568 9.85278 8.84867 9.85278 11.3442C9.85278 13.8396 11.8758 15.8626 14.3713 15.8626Z" fill="#F27D00"/>
<path d="M33.3758 34.2084C33.3758 34.2084 26.8596 28.7695 25.8973 19.4292C25.3744 22.0441 25.3535 31.4366 33.3758 34.2084Z" fill="#F27D00"/>
<path d="M34.0031 32.001C34.0031 32.001 34.0659 17.6402 50.1734 16.019C50.1734 16.019 53.4995 15.2555 59.6287 16.3014C59.6287 16.3014 61.229 9.28312 54.9533 3.96973C54.5768 6.23942 52.6523 15.7993 41.9627 10.8207C40.603 11.8666 30.9176 18.8326 34.0031 32.001Z" fill="#F27D00"/>
<path d="M47.2653 9.17855C49.7608 9.17855 51.7838 7.15556 51.7838 4.66008C51.7838 2.16459 49.7608 0.141602 47.2653 0.141602C44.7698 0.141602 42.7468 2.16459 42.7468 4.66008C42.7468 7.15556 44.7698 9.17855 47.2653 9.17855Z" fill="#F27D00"/>
<path d="M35.9174 32.1474C35.9174 32.1474 37.685 23.853 45.4982 18.6338C42.9461 19.3973 34.6204 23.7589 35.9174 32.1474Z" fill="#F27D00"/>
<path d="M38.02 31.6142C38.02 31.6142 50.4877 24.5018 59.943 37.6388C59.943 37.6388 62.265 40.1386 64.4196 45.9646C64.4196 45.9646 71.3019 43.8517 72.7662 35.7561C70.6221 36.5615 61.3655 39.668 60.3509 27.922C58.7611 27.2631 47.8937 22.3472 38.02 31.6142Z" fill="#F27D00"/>
<path d="M68.3316 33.9569C70.8271 33.9569 72.8501 31.9339 72.8501 29.4384C72.8501 26.9429 70.8271 24.9199 68.3316 24.9199C65.8361 24.9199 63.8131 26.9429 63.8131 29.4384C63.8131 31.9339 65.8361 33.9569 68.3316 33.9569Z" fill="#F27D00"/>
<path d="M38.8569 33.3402C38.8569 33.3402 46.9316 30.7253 55.341 34.8882C53.4165 33.0473 45.4778 28.0268 38.8569 33.3402Z" fill="#F27D00"/>
<path d="M40.3627 34.7832C40.3627 34.7832 52.9454 41.7073 46.6697 56.6225C46.6697 56.6225 45.7493 59.9067 41.9002 64.7913C41.9002 64.7913 47.2973 69.5608 54.964 66.5799C53.1546 65.1678 45.6761 58.9026 55.1628 51.8948C54.8908 50.2109 53.416 38.3708 40.3627 34.7832Z" fill="#F27D00"/>
<path d="M58.0389 64.0277C60.5343 64.0277 62.5573 62.0047 62.5573 59.5092C62.5573 57.0137 60.5343 54.9907 58.0389 54.9907C55.5434 54.9907 53.5204 57.0137 53.5204 59.5092C53.5204 62.0047 55.5434 64.0277 58.0389 64.0277Z" fill="#F27D00"/>
<path d="M39.3171 36.394C39.3171 36.394 45.7601 41.9166 46.6074 51.2673C47.1617 48.663 47.3081 39.2704 39.3171 36.394Z" fill="#F27D00"/>
</svg>
