<?xml version="1.0" encoding="utf-8"?>
<!-- Generator: Adobe Illustrator 16.0.0, SVG Export Plug-In . SVG Version: 6.00 Build 0)  -->
<!DOCTYPE svg PUBLIC "-//W3C//DTD SVG 1.1//EN" "http://www.w3.org/Graphics/SVG/1.1/DTD/svg11.dtd">
<svg version="1.1" id="_x32_" xmlns="http://www.w3.org/2000/svg" xmlns:xlink="http://www.w3.org/1999/xlink" x="0px" y="0px"
	 width="800px" height="800px" viewBox="0 0 800 800" enable-background="new 0 0 800 800" xml:space="preserve">
<g>
	<circle fill="#B73377" cx="391.803" cy="96.195" r="83.61"/>
	<path fill="#B73377" d="M625.32,441.82l-55.774-208.142c-0.029-0.16-0.089-0.321-0.13-0.481l-0.984-3.668l-0.142,0.039
		c-5.085-15.867-19.777-27.424-37.333-27.424c-0.141,0-0.261,0.041-0.402,0.041v-0.724H268.067v0.684
		c-17.556,0-32.248,11.567-37.333,27.424l-0.141-0.039l-0.983,3.657c-0.041,0.171-0.101,0.332-0.131,0.503L173.705,441.82
		l0.522,0.142c-0.251,1.717-0.522,3.436-0.522,5.225c0,19.616,15.908,35.534,35.533,35.534c15.025,0,27.807-9.366,32.993-22.55
		l0.251,0.07l40.91-152.68v0.573h0.321c1.116-5.025,5.386-8.864,10.753-8.864c5.366,0,9.637,3.839,10.752,8.864h0.333v1.647
		c0.02,0.251,0.151,0.473,0.151,0.724c0,0.251-0.131,0.472-0.151,0.724v1.558L240.05,557.246c-1.055,2.15-1.698,4.513-1.879,7.015
		l-0.14,0.513l0.08,0.02c-0.01,0.282-0.08,0.544-0.08,0.824c0,10.532,8.542,19.063,19.073,19.063h48.438v161.593
		c0,22.703,18.4,41.102,41.112,41.102c22.702,0,41.111-18.41,41.111-41.102V584.681h23.375v161.593
		c0,22.703,18.41,41.102,41.111,41.102c22.711,0,41.112-18.41,41.112-41.102V584.681h48.588c10.531,0,19.074-8.53,19.074-19.063
		c0-0.28-0.071-0.552-0.081-0.824l0.081-0.02l-0.141-0.513c-0.181-2.502-0.825-4.864-1.88-7.015l-65.311-243.725l0.211-0.061
		c-0.271-0.965-0.603-1.919-0.603-2.974c0-6.191,5.025-11.236,11.234-11.236c5.276,0,9.507,3.729,10.703,8.643l0.432-0.11
		l40.852,152.439l0.24-0.071c5.196,13.185,17.969,22.551,32.993,22.551c19.626,0,35.534-15.918,35.534-35.535
		c0-1.788-0.272-3.507-0.522-5.226L625.32,441.82z"/>
</g>
</svg>
