<?xml version="1.0" encoding="utf-8"?>
<!-- Generator: Adobe Illustrator 16.0.0, SVG Export Plug-In . SVG Version: 6.00 Build 0)  -->
<!DOCTYPE svg PUBLIC "-//W3C//DTD SVG 1.1//EN" "http://www.w3.org/Graphics/SVG/1.1/DTD/svg11.dtd">
<svg version="1.1" id="Layer_1" xmlns="http://www.w3.org/2000/svg" xmlns:xlink="http://www.w3.org/1999/xlink" x="0px" y="0px"
	 width="800px" height="800px" viewBox="0 0 800 800" enable-background="new 0 0 800 800" xml:space="preserve">
<g>
	<circle fill="#2DA9D9" cx="395.057" cy="96.201" r="83.596"/>
	<path fill="#2DA9D9" d="M553.348,202.273v-0.404H253.847v0.272c-21.646,0-39.19,17.474-39.352,39.08h-0.031v236.873h0.395
		c-0.021,9.023,3.405,18.049,10.287,24.932c13.724,13.733,35.978,13.733,49.712,0c6.871-6.883,10.297-15.908,10.277-24.932h0.08
		V314.479v-1.738h0.092c0.252-5.983,5.103-10.753,11.127-10.753c6.043,0,10.895,4.78,11.146,10.753h0.092v1.738v105.505v326.351
		c0.03,22.688,18.413,41.061,41.111,41.061c22.697,0,41.11-18.402,41.11-41.11V527.956h0.304c0-6.295,5.094-11.398,11.379-11.398
		c6.286,0,11.389,5.104,11.389,11.398h0.294v218.329c0,22.708,18.422,41.11,41.12,41.11c22.708,0,41.11-18.402,41.11-41.11V527.956
		V419.984V314.479v-1.738c0-6.215,5.024-11.238,11.239-11.238c6.194,0,11.217,5.023,11.217,11.238v1.738v163.625h0.384
		c-0.02,9.025,3.406,18.05,10.289,24.933c13.733,13.733,35.985,13.733,49.721,0c6.882-6.883,10.307-15.907,10.288-24.933h0.07
		V241.231C588.717,220.868,573.184,204.304,553.348,202.273z"/>
</g>
</svg>
